<svg width="243" height="66" viewBox="0 0 243 66" fill="none" xmlns="http://www.w3.org/2000/svg">
<path d="M13.8001 16.5334C15.2667 14.4 17.0445 12.7111 19.1334 11.4667C21.2223 10.2223 23.4667 9.60003 25.8667 9.60003V23.5334H22.2001C19.3556 23.5334 17.2445 24.0889 15.8667 25.2C14.489 26.3111 13.8001 28.2445 13.8001 31V47.3334H0.733398V9.93336H13.8001V16.5334Z" fill="white"/>
<path d="M66.2844 28.2C66.2844 29.2223 66.2178 30.2445 66.0844 31.2667H41.3511C41.4844 33.3111 42.04 34.8445 43.0178 35.8667C44.04 36.8445 45.3289 37.3334 46.8844 37.3334C49.0622 37.3334 50.6178 36.3556 51.5511 34.4H65.4845C64.9067 36.9778 63.7733 39.2889 62.0844 41.3334C60.44 43.3334 58.3511 44.9111 55.8178 46.0667C53.2844 47.2223 50.4844 47.8 47.4178 47.8C43.7289 47.8 40.44 47.0223 37.5511 45.4667C34.7067 43.9111 32.4622 41.6889 30.8178 38.8C29.2178 35.9111 28.4178 32.5111 28.4178 28.6C28.4178 24.6889 29.2178 21.3111 30.8178 18.4667C32.4178 15.5778 34.64 13.3556 37.4844 11.8C40.3733 10.2445 43.6844 9.4667 47.4178 9.4667C51.1067 9.4667 54.3733 10.2223 57.2178 11.7334C60.0622 13.2445 62.2844 15.4223 63.8844 18.2667C65.4844 21.0667 66.2844 24.3778 66.2844 28.2ZM52.9511 24.9334C52.9511 23.3334 52.4178 22.0889 51.3511 21.2C50.2844 20.2667 48.9511 19.8 47.3511 19.8C45.7511 19.8 44.44 20.2445 43.4178 21.1334C42.3956 21.9778 41.7289 23.2445 41.4178 24.9334H52.9511Z" fill="white"/>
<path d="M94.9652 47.3334L88.2318 37.9334L82.8985 47.3334H68.5652L81.0318 27.9334L68.0318 9.93336H82.6985L89.4318 19.3334L94.8318 9.93336H109.165L96.4318 29L109.632 47.3334H94.9652Z" fill="white"/>
<path d="M119.827 47.8667C117.516 47.8667 115.649 47.2445 114.227 46C112.849 44.7111 112.16 43.0889 112.16 41.1334C112.16 39.1778 112.849 37.5556 114.227 36.2667C115.649 34.9778 117.516 34.3334 119.827 34.3334C122.094 34.3334 123.916 34.9778 125.294 36.2667C126.716 37.5556 127.427 39.1778 127.427 41.1334C127.427 43.0445 126.716 44.6445 125.294 45.9334C123.916 47.2223 122.094 47.8667 119.827 47.8667Z" fill="white"/>
<path d="M146.613 15.1334C147.635 13.4 149.079 12.0223 150.946 11C152.813 9.97781 155.013 9.4667 157.546 9.4667C160.524 9.4667 163.213 10.2445 165.613 11.8C168.057 13.3556 169.968 15.5778 171.346 18.4667C172.768 21.3556 173.479 24.7334 173.479 28.6C173.479 32.4667 172.768 35.8667 171.346 38.8C169.968 41.6889 168.057 43.9111 165.613 45.4667C163.213 47.0223 160.524 47.8 157.546 47.8C155.013 47.8 152.813 47.2889 150.946 46.2667C149.124 45.2445 147.679 43.8667 146.613 42.1334V65.2H133.546V9.93336H146.613V15.1334ZM160.213 28.6C160.213 26.1556 159.546 24.2667 158.213 22.9334C156.924 21.5556 155.324 20.8667 153.413 20.8667C151.501 20.8667 149.879 21.5556 148.546 22.9334C147.257 24.3111 146.613 26.2 146.613 28.6C146.613 31.0445 147.257 32.9556 148.546 34.3334C149.879 35.7111 151.501 36.4 153.413 36.4C155.324 36.4 156.924 35.7111 158.213 34.3334C159.546 32.9111 160.213 31 160.213 28.6Z" fill="white"/>
<path d="M214.592 28.2C214.592 29.2223 214.525 30.2445 214.392 31.2667H189.658C189.792 33.3111 190.347 34.8445 191.325 35.8667C192.347 36.8445 193.636 37.3334 195.192 37.3334C197.37 37.3334 198.925 36.3556 199.858 34.4H213.792C213.214 36.9778 212.081 39.2889 210.392 41.3334C208.747 43.3334 206.658 44.9111 204.125 46.0667C201.592 47.2223 198.792 47.8 195.725 47.8C192.036 47.8 188.747 47.0223 185.858 45.4667C183.014 43.9111 180.77 41.6889 179.125 38.8C177.525 35.9111 176.725 32.5111 176.725 28.6C176.725 24.6889 177.525 21.3111 179.125 18.4667C180.725 15.5778 182.947 13.3556 185.792 11.8C188.681 10.2445 191.992 9.4667 195.725 9.4667C199.414 9.4667 202.681 10.2223 205.525 11.7334C208.37 13.2445 210.592 15.4223 212.192 18.2667C213.792 21.0667 214.592 24.3778 214.592 28.2ZM201.258 24.9334C201.258 23.3334 200.725 22.0889 199.658 21.2C198.592 20.2667 197.258 19.8 195.658 19.8C194.058 19.8 192.747 20.2445 191.725 21.1334C190.703 21.9778 190.036 23.2445 189.725 24.9334H201.258Z" fill="white"/>
<path d="M242.006 36.2V47.3334H236.339C226.784 47.3334 222.006 42.6 222.006 33.1334V20.8H217.406V9.93336H222.006V0.866699H235.139V9.93336H241.939V20.8H235.139V33.3334C235.139 34.3556 235.361 35.0889 235.806 35.5334C236.295 35.9778 237.095 36.2 238.206 36.2H242.006Z" fill="white"/>
</svg>
