<svg width="180" height="48" viewBox="0 0 180 48" fill="none" xmlns="http://www.w3.org/2000/svg">
<path d="M10.067 11.986C11.1551 10.4407 12.474 9.21742 14.0238 8.31603C15.5735 7.41465 17.2387 6.96396 19.0192 6.96396V17.0562H16.2989C14.1886 17.0562 12.6224 17.4586 11.6002 18.2634C10.5781 19.0683 10.067 20.4686 10.067 22.4645V34.2952H0.372803V7.2054H10.067V11.986Z" fill="#1271A1"/>
<path d="M49.0051 20.4364C49.0051 21.1768 48.9557 21.9173 48.8567 22.6577H30.5071C30.606 24.1385 31.0182 25.2492 31.7436 25.9896C32.502 26.6978 33.4582 27.0519 34.6123 27.0519C36.228 27.0519 37.382 26.3437 38.0745 24.9272H48.4116C47.983 26.7944 47.1421 28.4684 45.8891 29.9492C44.6691 31.3979 43.1194 32.5407 41.2399 33.3777C39.3604 34.2147 37.2831 34.6332 35.0079 34.6332C32.2712 34.6332 29.8311 34.0698 27.6879 32.9431C25.5776 31.8164 23.9124 30.2068 22.6924 28.1143C21.5054 26.0218 20.9118 23.5591 20.9118 20.7262C20.9118 17.8932 21.5054 15.4466 22.6924 13.3863C23.8794 11.2938 25.5281 9.68421 27.6384 8.55748C29.7817 7.43075 32.2382 6.86738 35.0079 6.86738C37.7447 6.86738 40.1683 7.41465 42.2786 8.50919C44.3889 9.60373 46.0375 11.1811 47.2246 13.2415C48.4116 15.2696 49.0051 17.6679 49.0051 20.4364ZM39.1131 18.0703C39.1131 16.9114 38.7174 16.01 37.9261 15.3661C37.1347 14.6901 36.1455 14.3521 34.9585 14.3521C33.7714 14.3521 32.7987 14.674 32.0403 15.3179C31.282 15.9295 30.7874 16.847 30.5565 18.0703H39.1131Z" fill="#1271A1"/>
<path d="M70.2834 34.2952L65.2879 27.4865L61.3311 34.2952H50.6972L59.9462 20.2433L50.3015 7.2054H61.1827L66.1782 14.0141L70.1844 7.2054H80.8183L71.3715 21.0159L81.1646 34.2952H70.2834Z" fill="#1271A1"/>
<path d="M88.7285 34.6815C87.0139 34.6815 85.629 34.2308 84.5738 33.3294C83.5517 32.3958 83.0406 31.2208 83.0406 29.8044C83.0406 28.3879 83.5517 27.2129 84.5738 26.2793C85.629 25.3457 87.0139 24.879 88.7285 24.879C90.4101 24.879 91.762 25.3457 92.7842 26.2793C93.8393 27.2129 94.3669 28.3879 94.3669 29.8044C94.3669 31.1886 93.8393 32.3476 92.7842 33.2811C91.762 34.2147 90.4101 34.6815 88.7285 34.6815Z" fill="#1271A1"/>
<path d="M108.601 10.9719C109.359 9.7164 110.431 8.71844 111.815 7.97802C113.2 7.2376 114.833 6.86738 116.712 6.86738C118.921 6.86738 120.916 7.43075 122.697 8.55748C124.51 9.68421 125.928 11.2938 126.95 13.3863C128.005 15.4788 128.533 17.9254 128.533 20.7262C128.533 23.5269 128.005 25.9896 126.95 28.1143C125.928 30.2068 124.51 31.8164 122.697 32.9431C120.916 34.0698 118.921 34.6332 116.712 34.6332C114.833 34.6332 113.2 34.263 111.815 33.5226C110.464 32.7822 109.392 31.7842 108.601 30.5287V47.2365H98.9064V7.2054H108.601V10.9719ZM118.69 20.7262C118.69 18.9556 118.196 17.5874 117.207 16.6216C116.25 15.6237 115.063 15.1247 113.645 15.1247C112.228 15.1247 111.024 15.6237 110.035 16.6216C109.079 17.6196 108.601 18.9878 108.601 20.7262C108.601 22.4967 109.079 23.881 110.035 24.879C111.024 25.8769 112.228 26.3759 113.645 26.3759C115.063 26.3759 116.25 25.8769 117.207 24.879C118.196 23.8488 118.69 22.4645 118.69 20.7262Z" fill="#1271A1"/>
<path d="M159.034 20.4364C159.034 21.1768 158.985 21.9173 158.886 22.6577H140.536C140.635 24.1385 141.047 25.2492 141.773 25.9896C142.531 26.6978 143.487 27.0519 144.641 27.0519C146.257 27.0519 147.411 26.3437 148.104 24.9272H158.441C158.012 26.7944 157.171 28.4684 155.918 29.9492C154.698 31.3979 153.149 32.5407 151.269 33.3777C149.39 34.2147 147.312 34.6332 145.037 34.6332C142.3 34.6332 139.86 34.0698 137.717 32.9431C135.607 31.8164 133.942 30.2068 132.722 28.1143C131.535 26.0218 130.941 23.5591 130.941 20.7262C130.941 17.8932 131.535 15.4466 132.722 13.3863C133.909 11.2938 135.557 9.68421 137.668 8.55748C139.811 7.43075 142.267 6.86738 145.037 6.86738C147.774 6.86738 150.197 7.41465 152.308 8.50919C154.418 9.60373 156.067 11.1811 157.254 13.2415C158.441 15.2696 159.034 17.6679 159.034 20.4364ZM149.142 18.0703C149.142 16.9114 148.747 16.01 147.955 15.3661C147.164 14.6901 146.175 14.3521 144.988 14.3521C143.801 14.3521 142.828 14.674 142.07 15.3179C141.311 15.9295 140.817 16.847 140.586 18.0703H149.142Z" fill="#1271A1"/>
<path d="M179.373 26.231V34.2952H175.169C168.079 34.2952 164.535 30.8667 164.535 24.0098V15.0764H161.122V7.2054H164.535V0.638184H174.278V7.2054H179.323V15.0764H174.278V24.1546C174.278 24.895 174.443 25.4262 174.773 25.7481C175.136 26.0701 175.729 26.231 176.554 26.231H179.373Z" fill="#1271A1"/>
</svg>
